<svg width="234.29" height="147.72" xmlns="http://www.w3.org/2000/svg">
 <defs>
  <linearGradient y2="0.99285" x2="0.0467" y1="0.00437" x1="0.98036" id="a">
   <stop stop-color="#bf2169" offset="0"/>
   <stop stop-color="#b62165" offset="0.19"/>
   <stop stop-color="#9e215b" offset="0.49"/>
   <stop stop-color="#76204b" offset="0.88"/>
   <stop stop-color="#682045" offset="1"/>
  </linearGradient>
  <linearGradient y2="0.8183" x2="0.43554" y1="-0.01549" x1="0.9472" id="b">
   <stop stop-color="#fbd5e0" offset="0"/>
   <stop stop-color="#bf2169" offset="0.35"/>
   <stop stop-color="#682045" offset="1"/>
  </linearGradient>
 </defs>
 <title>logo-coloured-2019</title>
 <g>
  <title>Layer 1</title>
  <path id="svg_37" fill="#fff" d="m207.82994,11.61756l-149.06,38.75a3.65,3.65 0 0 0 -0.89,0.38a2.88,2.88 0 0 0 -0.71,0.69l-32.32,42.73a0.75,0.75 0 0 0 -0.12,0.45a0.57,0.57 0 0 0 0.4,0.53l32.39,7l1.9,0.66l6,1.31l4.14,0.57l40.72,8.88l3.66,1.1l4.68,1l3.2,0.4l63.56,13.73l22.45,-118.18z" class="b"/>
  <path id="svg_38" fill="url(#a)" d="m212.42994,26.64756a4.72,4.72 0 0 1 0.17,1.14a4.13,4.13 0 0 1 -0.15,1l-25.68,100.39c-0.15,0.59 -0.48,1 -0.73,1l-0.42,-0.09l22.54,-118.82l4.27,15.38z" class="c"/>
  <path stroke="null" id="svg_39" fill="url(#b)" d="m185.58994,130.08756l22.57,-118.82l-149.39,38.85a3.69,3.69 0 0 0 -1,0.41a3,3 0 0 0 -0.78,0.76l-32.55,43a0.65,0.65 0 0 0 0.42,1.11l34.56,7.46a16.14,16.14 0 0 1 -6.45,-4.14a17.76,17.76 0 0 1 -3.69,-14.05c1.88,-13.61 11.66,-19.71 20.7,-19.71a24.48,24.48 0 0 1 11.63,2.47l-0.53,6.06l-4.45,0l0.2,-2.34c-1.63,-1 -7.44,-1.93 -12.23,0c-5.63,2.59 -8.05,9.27 -8.37,13.76c-0.22,3.2 0.23,7.39 2.48,10.42s8.57,5.38 16,2.89c3.3,-1.16 4.78,2.26 4.78,2.26l-0.35,0.19a23.47,23.47 0 0 1 -13.67,3.48l48.47,10.45l6.75,-12.35l-7.54,-23.58l-3.14,0l0.37,-4.26l8,0l6.47,20.19l8.94,-16.35a6.78,6.78 0 0 1 6.43,-3.84l1.64,0l-22.52,40.16a7.75,7.75 0 0 1 -0.72,1.1l66.97,14.42zm-103.21,-55.66l9.7,0l-2.6,29.83s-6.37,0.32 -5.81,-6.16l1.69,-19.41l-3.35,0l0.37,-4.26zm10.28,-5.29a3.53,3.53 0 0 1 -3.44,3.17a2.86,2.86 0 0 1 -2.9,-3.17a3.54,3.54 0 0 1 3.45,-3.16a2.85,2.85 0 0 1 2.89,3.16zm5,0.42l6.49,-1.57l-0.57,6.44l4.88,0l-0.36,4.13l-4.87,0l-1.46,16.46a6.67,6.67 0 0 0 0.56,3.94a2.57,2.57 0 0 0 2.38,1.16a3.34,3.34 0 0 1 3.53,3.52a27.26,27.26 0 0 1 -4.67,0.63c-3,0 -5.25,-0.82 -6.57,-2.46s-1.81,-4.11 -1.52,-7.45l2.18,-24.8zm75.41,17.77a37.52,37.52 0 0 1 -1.27,7.78a14,14 0 0 1 -2.91,4.86c-2.56,2.86 -6.28,4.31 -11,4.31s-8.4,-1.28 -10.49,-3.8s-2.61,-6.44 -2.15,-11.75l1.24,-14.31l-4,0l0.37,-4.2l10.31,0l-0.34,4.2l-1.14,12.79a36.21,36.21 0 0 0 -0.1,7a6.44,6.44 0 0 0 1.33,3.37a7,7 0 0 0 5.81,2.5a8.57,8.57 0 0 0 6.14,-2.34c1.59,-1.46 2.55,-4.62 3,-9.4l1.24,-14.29a4.27,4.27 0 0 1 4.49,-3.82l1,0l-1.53,17.1z" class="d"/>
 </g>
</svg>